<?xml version="1.0" encoding="UTF-8"?>
<svg id="logo" xmlns="http://www.w3.org/2000/svg" viewBox="0 0 250 85.26">
  <defs>
    <style>
      .cls-1 {
        fill: #fff;
      }

      .cls-2 {
        opacity: .94;
      }
    </style>
  </defs>
  <g class="cls-2">
    <path d="m51,19.05c2,1.06,3.58,2.65,4.74,4.77,1.16,2.12,1.74,4.7,1.74,7.74v19.38h-5.4v-18.6c0-3.28-.81-5.79-2.43-7.53-1.62-1.74-3.81-2.61-6.57-2.61s-5.1.91-6.78,2.73c-1.68,1.82-2.52,4.45-2.52,7.89v18.12h-5.4v-18.6c0-3.28-.81-5.79-2.43-7.53-1.62-1.74-3.81-2.61-6.57-2.61s-5.1.91-6.78,2.73c-1.68,1.82-2.52,4.45-2.52,7.89v18.12h-5.46V18.06h5.46v4.74c1.08-1.72,2.53-3.04,4.35-3.96,1.82-.92,3.83-1.38,6.03-1.38,2.76,0,5.2.62,7.32,1.86,2.12,1.24,3.7,3.06,4.74,5.46.92-2.32,2.44-4.12,4.56-5.4,2.12-1.28,4.48-1.92,7.08-1.92s4.84.53,6.84,1.59Z"/>
    <path d="m94.74,18.06l-19.8,48.36h-5.64l6.48-15.84-13.26-32.52h6.06l10.32,26.64,10.2-26.64h5.64Z"/>
    <path d="m124.59,30.03c-2.38,2.3-6.01,3.45-10.89,3.45h-8.04v17.46h-5.46V9.12h13.5c4.72,0,8.31,1.14,10.77,3.42,2.46,2.28,3.69,5.22,3.69,8.82s-1.19,6.37-3.57,8.67Zm-4.17-3.03c1.44-1.32,2.16-3.2,2.16-5.64,0-5.16-2.96-7.74-8.88-7.74h-8.04v15.36h8.04c3.04,0,5.28-.66,6.72-1.98Z"/>
    <path d="m159.66,41.64h-18.24l-3.36,9.3h-5.76l15.12-41.58h6.3l15.06,41.58h-5.76l-3.36-9.3Zm-1.56-4.44l-7.56-21.12-7.56,21.12h15.12Z"/>
    <path d="m201.12,9.12v4.44h-11.4v37.38h-5.46V13.56h-11.46v-4.44h28.32Z"/>
    <path d="m240.06,9.12v41.82h-5.46v-18.96h-21.3v18.96h-5.46V9.12h5.46v18.36h21.3V9.12h5.46Z"/>
  </g>
  <g id="road">
    <rect x="100" y="53.39" width="140" height="13"/>
    <rect class="cls-1" x="130" y="59.39" width="18" height="1"/>
    <rect class="cls-1" x="108" y="59.39" width="18" height="1"/>
    <rect class="cls-1" x="151" y="59.39" width="18" height="1"/>
    <rect class="cls-1" x="172" y="59.39" width="18" height="1"/>
    <rect class="cls-1" x="215" y="59.39" width="18" height="1"/>
    <rect class="cls-1" x="194" y="59.39" width="18" height="1"/>
  </g>
</svg>