<?xml version="1.0" encoding="UTF-8"?>
<svg id="logo" xmlns="http://www.w3.org/2000/svg" viewBox="0 0 209 69">
  <defs>
    <style>
      .cls-1 {
        fill: #fff;
      }

      .cls-2 {
        opacity: .94;
      }
    </style>
  </defs>
  <g class="cls-2">
    <path class="cls-1" d="m4.38,30.58c0-3-.06-5.46-.24-7.86h4.62l.24,4.68h.18c1.62-2.76,4.32-5.34,9.12-5.34,3.96,0,6.96,2.4,8.22,5.82h.12c.9-1.62,2.04-2.88,3.24-3.78,1.74-1.32,3.66-2.04,6.42-2.04,3.84,0,9.54,2.52,9.54,12.6v17.1h-5.16v-16.44c0-5.58-2.04-8.94-6.3-8.94-3,0-5.34,2.22-6.24,4.8-.24.72-.42,1.68-.42,2.64v17.94h-5.16v-17.4c0-4.62-2.04-7.98-6.06-7.98-3.3,0-5.7,2.64-6.54,5.28-.3.78-.42,1.68-.42,2.58v17.52h-5.16v-21.18Z"/>
    <path class="cls-1" d="m55.56,22.72l6.36,17.16c.66,1.92,1.38,4.2,1.86,5.94h.12c.54-1.74,1.14-3.96,1.86-6.06l5.76-17.04h5.58l-7.92,20.7c-3.78,9.96-6.36,15.06-9.96,18.18-2.58,2.28-5.16,3.18-6.48,3.42l-1.32-4.44c1.32-.42,3.06-1.26,4.62-2.58,1.44-1.14,3.24-3.18,4.44-5.88.24-.54.42-.96.42-1.26s-.12-.72-.36-1.38l-10.74-26.76h5.76Z"/>
    <path class="cls-1" d="m82.08,11.8c2.52-.42,5.82-.78,10.02-.78,5.16,0,8.94,1.2,11.34,3.36,2.22,1.92,3.54,4.86,3.54,8.46s-1.08,6.54-3.12,8.64c-2.76,2.94-7.26,4.44-12.36,4.44-1.56,0-3-.06-4.2-.36v16.2h-5.22V11.8Zm5.22,19.5c1.14.3,2.58.42,4.32.42,6.3,0,10.14-3.06,10.14-8.64s-3.78-7.92-9.54-7.92c-2.28,0-4.02.18-4.92.42v15.72Z"/>
    <path class="cls-1" d="m115.5,39.04l-4.2,12.72h-5.4l13.74-40.44h6.3l13.8,40.44h-5.58l-4.32-12.72h-14.34Zm13.26-4.08l-3.96-11.64c-.9-2.64-1.5-5.04-2.1-7.38h-.12c-.6,2.4-1.26,4.86-2.04,7.32l-3.96,11.7h12.18Z"/>
    <path class="cls-1" d="m148.74,15.76h-12.3v-4.44h29.94v4.44h-12.36v36h-5.28V15.76Z"/>
    <path class="cls-1" d="m176.1,11.32v16.92h19.56V11.32h5.28v40.44h-5.28v-18.96h-19.56v18.96h-5.22V11.32h5.22Z"/>
  </g>
  <g id="road">
    <rect class="cls-1" x="74" y="53.66" width="132" height="10.69"/>
    <rect x="102.29" y="58.59" width="16.97" height=".82"/>
    <rect x="81.54" y="58.59" width="16.97" height=".82"/>
    <rect x="122.09" y="58.59" width="16.97" height=".82"/>
    <rect x="141.89" y="58.59" width="16.97" height=".82"/>
    <rect x="182.43" y="58.59" width="16.97" height=".82"/>
    <rect x="162.63" y="58.59" width="16.97" height=".82"/>
  </g>
</svg>